<svg width="177" height="40" viewBox="0 0 177 40" fill="none" xmlns="http://www.w3.org/2000/svg">
<rect x="0.5" y="0.5" width="176" height="39" fill="white" stroke="#1D1D1D"/>
<rect x="58" width="119" height="40" fill="#1D1D1D"/>
<path d="M21.0781 18.5742C21.0781 15.8398 21.75 13.7031 23.0938 12.1641C24.4453 10.6172 26.3906 9.84375 28.9297 9.84375C31.4688 9.84375 33.4102 10.6211 34.7539 12.1758C36.1055 13.7227 36.7812 15.8633 36.7812 18.5977C36.7812 21.332 36.1094 23.4766 34.7656 25.0312C33.6406 26.3203 32.1055 27.0703 30.1602 27.2812C30.2383 28.0391 30.5195 28.6445 31.0039 29.0977C31.4883 29.5508 32.1797 29.7773 33.0781 29.7773C33.5625 29.7773 33.957 29.7383 34.2617 29.6602C34.5664 29.582 34.7383 29.625 34.7773 29.7891L35.0117 30.8203C35.0508 31.0078 34.9531 31.1289 34.7188 31.1836C34.0234 31.3398 33.3516 31.418 32.7031 31.418C31.0234 31.418 29.8203 30.9961 29.0938 30.1523C28.375 29.3164 27.9805 28.3672 27.9102 27.3047C25.8633 27.1172 24.2578 26.3516 23.0938 25.0078C21.75 23.4531 21.0781 21.3086 21.0781 18.5742ZM23.4805 18.5977C23.4805 20.7852 23.9297 22.4883 24.8281 23.707C25.7266 24.918 27.0938 25.5234 28.9297 25.5234C30.7656 25.5234 32.1328 24.918 33.0312 23.707C33.9297 22.4883 34.3789 20.7852 34.3789 18.5977C34.3789 16.4102 33.9297 14.7109 33.0312 13.5C32.1328 12.2812 30.7656 11.6719 28.9297 11.6719C27.0938 11.6719 25.7266 12.2812 24.8281 13.5C23.9297 14.7109 23.4805 16.4102 23.4805 18.5977Z" fill="#1D1D1D"/>
<path d="M88.8984 18.9785C88.8984 16.6999 89.4583 14.9193 90.5781 13.6367C91.7044 12.3477 93.3255 11.7031 95.4414 11.7031C97.5573 11.7031 99.1751 12.3509 100.295 13.6465C101.421 14.9355 101.984 16.7194 101.984 18.998C101.984 21.2767 101.424 23.0638 100.305 24.3594C99.3672 25.4336 98.0879 26.0586 96.4668 26.2344C96.5319 26.8659 96.7663 27.3704 97.1699 27.748C97.5736 28.1257 98.1497 28.3145 98.8984 28.3145C99.3021 28.3145 99.6309 28.2819 99.8848 28.2168C100.139 28.1517 100.282 28.1875 100.314 28.3242L100.51 29.1836C100.542 29.3398 100.461 29.4408 100.266 29.4863C99.6862 29.6165 99.1263 29.6816 98.5859 29.6816C97.1862 29.6816 96.1836 29.3301 95.5781 28.627C94.9792 27.9303 94.6504 27.1393 94.5918 26.2539C92.8861 26.0977 91.5482 25.4596 90.5781 24.3398C89.4583 23.0443 88.8984 21.2572 88.8984 18.9785ZM90.9004 18.998C90.9004 20.821 91.2747 22.2402 92.0234 23.2559C92.7721 24.265 93.9115 24.7695 95.4414 24.7695C96.9714 24.7695 98.1107 24.265 98.8594 23.2559C99.6081 22.2402 99.9824 20.821 99.9824 18.998C99.9824 17.1751 99.6081 15.7591 98.8594 14.75C98.1107 13.7344 96.9714 13.2266 95.4414 13.2266C93.9115 13.2266 92.7721 13.7344 92.0234 14.75C91.2747 15.7591 90.9004 17.1751 90.9004 18.998ZM104.543 20.6582V12.5332C104.543 12.1751 104.706 11.9961 105.031 11.9961H105.93C106.255 11.9961 106.418 12.1751 106.418 12.5332V20.3652C106.418 22.1882 106.675 23.3796 107.189 23.9395C107.71 24.4928 108.557 24.7695 109.729 24.7695C110.9 24.7695 111.743 24.4928 112.258 23.9395C112.779 23.3796 113.039 22.1882 113.039 20.3652V12.5332C113.039 12.1751 113.202 11.9961 113.527 11.9961H114.426C114.751 11.9961 114.914 12.1751 114.914 12.5332V20.6582C114.914 22.722 114.439 24.1771 113.488 25.0234C112.544 25.8698 111.291 26.293 109.729 26.293C108.166 26.293 106.91 25.8698 105.959 25.0234C105.015 24.1771 104.543 22.722 104.543 20.6582ZM118.723 26C118.397 26 118.234 25.821 118.234 25.4629V12.5332C118.234 12.1751 118.397 11.9961 118.723 11.9961H119.621C119.947 11.9961 120.109 12.1751 120.109 12.5332V25.4629C120.109 25.821 119.947 26 119.621 26H118.723ZM122.941 26C122.583 26 122.404 25.8535 122.404 25.5605V25.0918C122.404 24.7793 122.502 24.4896 122.697 24.2227L130.373 13.6172V13.5781C130.113 13.5911 129.852 13.5977 129.592 13.5977H123.254C122.896 13.5977 122.717 13.4512 122.717 13.1582V12.4355C122.717 12.1426 122.896 11.9961 123.254 11.9961H132.258C132.616 11.9961 132.795 12.1426 132.795 12.4355V12.7383C132.795 12.9531 132.73 13.1517 132.6 13.334L124.826 24.3789V24.418C125.002 24.4049 125.262 24.3984 125.607 24.3984H132.473C132.831 24.3984 133.01 24.5449 133.01 24.8379V25.5605C133.01 25.8535 132.831 26 132.473 26H122.941ZM134.592 12.6406C134.312 12.2109 134.4 11.9961 134.855 11.9961H135.949C136.236 11.9961 136.47 12.1556 136.652 12.4746L139.133 16.7422C139.406 17.2109 139.641 17.6211 139.836 17.9727C140.031 18.3177 140.22 18.6855 140.402 19.0762H140.441C140.624 18.6855 140.812 18.3177 141.008 17.9727C141.203 17.6211 141.438 17.2109 141.711 16.7422L144.191 12.4746C144.374 12.1556 144.608 11.9961 144.895 11.9961H145.988C146.444 11.9961 146.532 12.2109 146.252 12.6406L141.359 20.2383V25.4629C141.359 25.821 141.197 26 140.871 26H139.973C139.647 26 139.484 25.821 139.484 25.4629V20.2383L134.592 12.6406Z" fill="white"/>
</svg>
